name D:\school\WTK\thesis\model\3dpredictsim\Results\MidTarsalJoint\Fal_s1_bCst_PF_Natali2010_ls150_MT_k30_MTP_T5_ig23_PFx10_v27.mot
datacolumns 128
datarows 4
range 0.59620035 0.61408636
endheader
time	pelvis_tilt	pelvis_list	pelvis_rotation	pelvis_tx	pelvis_ty	pelvis_tz	hip_flexion_l	hip_adduction_l	hip_rotation_l	hip_flexion_r	hip_adduction_r	hip_rotation_r	knee_angle_l	knee_angle_r	ankle_angle_l	ankle_angle_r	subtalar_angle_l	subtalar_angle_r	mtj_angle_l	mtj_angle_r	mtp_angle_l	mtp_angle_r	lumbar_extension	lumbar_bending	lumbar_rotation	arm_flex_l	arm_add_l	arm_rot_l	arm_flex_r	arm_add_r	arm_rot_r	elbow_flex_l	elbow_flex_r	pro_sup_l	pro_sup_r	glut_med1_l/activation	glut_med2_l/activation	glut_med3_l/activation	glut_min1_l/activation	glut_min2_l/activation	glut_min3_l/activation	semimem_l/activation	semiten_l/activation	bifemlh_l/activation	bifemsh_l/activation	sar_l/activation	add_long_l/activation	add_brev_l/activation	add_mag1_l/activation	add_mag2_l/activation	add_mag3_l/activation	tfl_l/activation	pect_l/activation	grac_l/activation	glut_max1_l/activation	glut_max2_l/activation	glut_max3_l/activation	iliacus_l/activation	psoas_l/activation	quad_fem_l/activation	gem_l/activation	peri_l/activation	rect_fem_l/activation	vas_med_l/activation	vas_int_l/activation	vas_lat_l/activation	med_gas_l/activation	lat_gas_l/activation	soleus_l/activation	tib_post_l/activation	flex_dig_l/activation	flex_hal_l/activation	tib_ant_l/activation	per_brev_l/activation	per_long_l/activation	per_tert_l/activation	ext_dig_l/activation	ext_hal_l/activation	ercspn_l/activation	intobl_l/activation	extobl_l/activation	glut_med1_r/activation	glut_med2_r/activation	glut_med3_r/activation	glut_min1_r/activation	glut_min2_r/activation	glut_min3_r/activation	semimem_r/activation	semiten_r/activation	bifemlh_r/activation	bifemsh_r/activation	sar_r/activation	add_long_r/activation	add_brev_r/activation	add_mag1_r/activation	add_mag2_r/activation	add_mag3_r/activation	tfl_r/activation	pect_r/activation	grac_r/activation	glut_max1_r/activation	glut_max2_r/activation	glut_max3_r/activation	iliacus_r/activation	psoas_r/activation	quad_fem_r/activation	gem_r/activation	peri_r/activation	rect_fem_r/activation	vas_med_r/activation	vas_int_r/activation	vas_lat_r/activation	med_gas_r/activation	lat_gas_r/activation	soleus_r/activation	tib_post_r/activation	flex_dig_r/activation	flex_hal_r/activation	tib_ant_r/activation	per_brev_r/activation	per_long_r/activation	per_tert_r/activation	ext_dig_r/activation	ext_hal_r/activation	ercspn_r/activation	intobl_r/activation	extobl_r/activation	
          0.59620035	        -10.99980798	         -0.97385866	         -0.97072149	          1.60974095	          0.91416239	          0.00214371	          2.43999188	          0.95935574	          2.86806178	         39.98034025	          5.03240246	          1.05539175	        -41.74937131	        -33.29565098	        -16.45007597	         -5.00398939	          5.50846247	         -9.80960813	         -2.01963747	         -0.43636587	          4.68543779	         -1.24258490	          2.87397400	          2.42223294	         -2.27252144	          2.20533960	        -13.45823875	         19.32224994	         -5.69595877	        -13.44970710	          2.40639300	         26.38677395	         50.22383402	         86.51662706	         86.51662706	          0.06720651	          0.05000002	          0.06043068	          0.10877101	          0.07665183	          0.06632001	          0.08910216	          0.05000012	          0.05000008	          0.06631649	          0.28076571	          0.49021906	          0.30073045	          0.06453038	          0.05000014	          0.05000001	          0.97555715	          0.62378425	          0.20074929	          0.05000009	          0.05000002	          0.05000000	          0.38308152	          0.72010490	          0.44057315	          0.39787956	          0.09706500	          0.32302825	          0.05000003	          0.05000000	          0.05000000	          0.12910677	          0.17438664	          0.06246882	          0.11370935	          0.13259797	          0.13242411	          0.18059391	          0.07224297	          0.05952149	          0.26973171	          0.59314239	          0.39066520	          0.08939652	          0.14550472	          0.05000000	          0.31367124	          0.12920473	          0.11064119	          0.05000004	          0.05000006	          0.05000011	          0.44389561	          0.06618476	          0.45717452	          0.05000007	          0.05294968	          0.10668658	          0.27518551	          0.37739688	          0.30732062	          0.23610848	          0.05000007	          0.05014858	          0.05496843	          0.23466891	          0.18706406	          0.22892314	          0.05000003	          0.05000006	          0.35478602	          0.05498382	          0.49898107	          0.05000003	          0.10478078	          0.10781462	          0.10494348	          0.05000000	          0.05000000	          0.05000000	          0.34819625	          0.05000000	          0.05000000	          0.07342224	          0.41722016	          0.16777483	          0.72390126	          0.87820033	          0.37580201	          0.17117289	          0.05000000	          0.05000001	
          0.60216236	        -10.96535734	         -0.91601053	         -0.84788771	          1.62642827	          0.91176450	          0.00216002	          3.21703544	          0.98672095	          2.65118247	         39.44541837	          5.19903624	          1.38374263	        -43.68309235	        -32.83320034	        -15.70506399	         -4.68056644	          5.77050056	        -10.53800590	         -1.91852786	         -0.44065112	          4.24683854	         -1.35331378	          2.93824055	          2.42726441	         -2.21148623	          2.20858076	        -13.45268597	         19.25888962	         -5.49833744	        -13.45452516	          2.58300033	         26.23238178	         49.29871296	         86.51662706	         86.51662706	          0.06113202	          0.05000001	          0.05496863	          0.09893970	          0.06972363	          0.06032567	          0.09267043	          0.06573837	          0.05000019	          0.08180125	          0.29600434	          0.44591048	          0.27681954	          0.05869780	          0.05000017	          0.05000000	          0.98250917	          0.63886344	          0.23054493	          0.05000006	          0.05000001	          0.05000000	          0.34845653	          0.65501791	          0.40075176	          0.36191708	          0.08829174	          0.35025281	          0.05000000	          0.05000000	          0.05000000	          0.11743740	          0.15862464	          0.05682255	          0.10343169	          0.12061308	          0.12045491	          0.17242608	          0.06571328	          0.05414163	          0.27990956	          0.57846472	          0.40186853	          0.08638748	          0.13795258	          0.05000000	          0.38212979	          0.16773291	          0.10064086	          0.05680292	          0.05000033	          0.05000018	          0.40377392	          0.06020265	          0.41585261	          0.05000000	          0.05000001	          0.09704377	          0.25031280	          0.42839065	          0.35131099	          0.24334556	          0.05000005	          0.05523749	          0.05000014	          0.25405082	          0.18946266	          0.22847576	          0.05000001	          0.05000002	          0.32271855	          0.05001413	          0.62159975	          0.05000005	          0.15551581	          0.15347874	          0.14955555	          0.05000000	          0.05000000	          0.05210570	          0.51058573	          0.05006511	          0.05210323	          0.18587653	          0.37950954	          0.15261043	          0.65847114	          0.79882383	          0.34183512	          0.15570135	          0.05000000	          0.05187427	
          0.60812436	        -10.92855676	         -0.86336592	         -0.71988479	          1.64312085	          0.90905027	          0.00217159	          4.07348275	          1.01192207	          2.42220671	         38.90211327	          5.37774254	          1.71384834	        -45.65433531	        -32.83139579	        -14.90663719	         -4.09473822	          5.98008677	        -11.33801979	         -1.81725408	         -0.09655348	          3.83330406	         -1.48989296	          3.00534580	          2.43578383	         -2.14244043	          2.20915964	        -13.44990878	         19.15982493	         -5.27863749	        -13.46874934	          2.79703611	         26.08818891	         48.30951334	         86.51662706	         86.51662706	          0.05560658	          0.05000002	          0.05000029	          0.08999700	          0.06342165	          0.05487982	          0.09111975	          0.10457947	          0.05000011	          0.09080292	          0.28318551	          0.40560670	          0.25179911	          0.05339240	          0.05000005	          0.05000000	          0.98748390	          0.58113456	          0.23012023	          0.05000005	          0.05000001	          0.05000000	          0.31696114	          0.59581384	          0.36452965	          0.32920507	          0.08031146	          0.32343492	          0.05000000	          0.05000000	          0.05000000	          0.10682278	          0.14428729	          0.05187220	          0.09408298	          0.10971145	          0.10956755	          0.16206038	          0.06043028	          0.05003339	          0.25517871	          0.56656838	          0.41865838	          0.08584530	          0.12841836	          0.05000000	          0.43657504	          0.27054895	          0.09155503	          0.11810829	          0.06043034	          0.11053967	          0.36727864	          0.05496837	          0.37826560	          0.05496834	          0.05002049	          0.08827245	          0.22768818	          0.41597040	          0.37923743	          0.25155058	          0.05000005	          0.05468937	          0.05496845	          0.29254448	          0.20534603	          0.23619644	          0.05000003	          0.05000002	          0.29354952	          0.05000010	          0.72922413	          0.05000001	          0.21290440	          0.20847474	          0.20130881	          0.05856959	          0.06006360	          0.05000000	          0.62202476	          0.30757542	          0.22294497	          0.16907600	          0.34520741	          0.13881668	          0.59895495	          0.72662180	          0.31093822	          0.14162822	          0.05000000	          0.05496836	
          0.61408636	        -10.89001928	         -0.81338116	         -0.58824445	          1.65981643	          0.90605552	          0.00217166	          4.99736680	          1.03519469	          2.17832109	         38.33827508	          5.55848041	          2.04853511	        -47.63392531	        -33.38233886	        -14.07588121	         -3.27530067	          6.14000977	        -12.24034217	         -1.71512150	          0.74262556	          3.44060872	         -1.54249837	          3.07450680	          2.44592049	         -2.06597514	          2.20149395	        -13.45008412	         19.01397189	         -5.03632150	        -13.49342029	          3.05520212	         25.96785087	         47.25991618	         86.51662706	         86.51662706	          0.05496831	          0.05000000	          0.05000000	          0.08186259	          0.05768928	          0.05000003	          0.09833212	          0.16174433	          0.12110175	          0.11655789	          0.25758970	          0.37059007	          0.25991127	          0.05000003	          0.05000005	          0.05000000	          0.99104371	          0.57097847	          0.27203424	          0.05000001	          0.05000000	          0.05000000	          0.28831248	          0.54196096	          0.33158148	          0.29944975	          0.07305248	          0.30130070	          0.05000000	          0.05000000	          0.05000000	          0.09716756	          0.13124582	          0.05016070	          0.08557928	          0.09979522	          0.09966425	          0.16753124	          0.05496832	          0.05000003	          0.24026719	          0.55234591	          0.44412376	          0.09539268	          0.15563514	          0.05000000	          0.44960113	          0.24938114	          0.09708582	          0.10743305	          0.05496836	          0.10054857	          0.33408201	          0.05000004	          0.34407590	          0.05000000	          0.05000001	          0.08029393	          0.20710850	          0.51059180	          0.43209446	          0.25742458	          0.05000003	          0.05000020	          0.05000012	          0.30694267	          0.20597031	          0.24323931	          0.05000000	          0.05000000	          0.26701703	          0.05000004	          0.80623806	          0.05000078	          0.28463862	          0.26722357	          0.25750259	          0.05327576	          0.05463473	          0.07636347	          0.56580280	          0.27977511	          0.20279401	          0.23156036	          0.31400569	          0.12626967	          0.54481817	          0.66094579	          0.40205215	          0.12882710	          0.05000003	          0.05000003	
